<?xml version="1.0" encoding="UTF-8" standalone="no"?>
<svg
   xmlns:dc="http://purl.org/dc/elements/1.1/"
   xmlns:cc="http://creativecommons.org/ns#"
   xmlns:rdf="http://www.w3.org/1999/02/22-rdf-syntax-ns#"
   xmlns:svg="http://www.w3.org/2000/svg"
   xmlns="http://www.w3.org/2000/svg"
   xmlns:sodipodi="http://sodipodi.sourceforge.net/DTD/sodipodi-0.dtd"
   xmlns:inkscape="http://www.inkscape.org/namespaces/inkscape"
   width="25"
   height="25"
   viewBox="0 0 6.6145832 6.6145835"
   version="1.1"
   id="svg1468"
   inkscape:version="1.0.2 (1.0.2+r75+1)"
   sodipodi:docname="drawPathAutoChecked.svg">
  <defs
     id="defs1462" />
  <sodipodi:namedview
     id="base"
     pagecolor="#ffffff"
     bordercolor="#666666"
     borderopacity="1.0"
     inkscape:pageopacity="0.0"
     inkscape:pageshadow="2"
     inkscape:zoom="7.9999996"
     inkscape:cx="0.20091698"
     inkscape:cy="3.3659177"
     inkscape:document-units="mm"
     inkscape:current-layer="layer1"
     showgrid="false"
     units="px"
     inkscape:window-width="1366"
     inkscape:window-height="737"
     inkscape:window-x="0"
     inkscape:window-y="0"
     inkscape:window-maximized="1"
     inkscape:document-rotation="0" />
  <metadata
     id="metadata1465">
    <rdf:RDF>
      <cc:Work
         rdf:about="">
        <dc:format>image/svg+xml</dc:format>
        <dc:type
           rdf:resource="http://purl.org/dc/dcmitype/StillImage" />
        <dc:title></dc:title>
      </cc:Work>
    </rdf:RDF>
  </metadata>
  <g
     inkscape:label="Layer 1"
     inkscape:groupmode="layer"
     id="layer1"
     transform="translate(0,-290.3854)">
    <path
       style="fill:#f9f9f9;fill-opacity:1;stroke-width:0.0007071"
       d="m 3.2923055,291.19052 c -0.1409959,0 -0.1477243,0.001 -0.1545125,0.03 -0.0041,0.0176 -0.038096,0.18459 -0.073381,0.37311 -0.037971,0.18985 -0.077167,0.35666 -0.0894,0.37568 -0.023052,0.0339 -0.05561,0.0488 -0.2237589,0.10439 -0.048861,0.0149 -0.153017,0.0622 -0.2330609,0.10284 -0.1233892,0.0637 -0.1531612,0.0747 -0.1979207,0.0692 -0.036628,-0.005 -0.1414517,-0.0661 -0.3679363,-0.21394 l -0.3172932,-0.20619 -0.1069703,0.10852 -0.1085205,0.10697 0.206189,0.3173 c 0.1424102,0.21701 0.2088057,0.33096 0.2129069,0.36483 0.00544,0.042 -0.00681,0.0785 -0.075964,0.21549 -0.044689,0.0909 -0.095151,0.2088 -0.1100708,0.26304 -0.035284,0.1207 -0.052772,0.1575 -0.0894,0.1819 -0.016263,0.009 -0.1774262,0.046 -0.3591512,0.0785 -0.181725,0.0339 -0.34705493,0.0651 -0.36741943,0.0692 l -0.0382406,0.008 v 0.1478 c 0,0.14099 0.001683,0.14824 0.0315226,0.15503 0.0162634,0.004 0.18304033,0.0376 0.37155353,0.0729 0.1898567,0.038 0.3566666,0.0777 0.3756877,0.0899 0.033941,0.0231 0.048808,0.0557 0.1043864,0.22376 0.01492,0.0489 0.062178,0.15301 0.102836,0.23306 0.06371,0.12339 0.074691,0.15316 0.069246,0.19792 -0.00544,0.0366 -0.066673,0.14093 -0.2144572,0.36742 l -0.206189,0.31729 0.1085205,0.10749 0.107487,0.108 0.3172933,-0.20567 c 0.2155952,-0.14107 0.332309,-0.20881 0.3648356,-0.21291 0.040729,-0.005 0.079695,0.008 0.2247925,0.0796 0.096237,0.0475 0.2187201,0.0981 0.2702679,0.11163 0.1152575,0.0312 0.1624338,0.0621 0.1813843,0.1204 0.00813,0.0231 0.042094,0.18993 0.075964,0.36897 0.03387,0.17904 0.065145,0.33607 0.069247,0.3483 0.00679,0.0217 0.025678,0.0248 0.1545124,0.0248 0.1288339,0 0.1477243,-0.003 0.1545125,-0.0248 0.0041,-0.0122 0.038303,-0.18035 0.074931,-0.37155 0.037971,-0.19255 0.078582,-0.3648 0.0894,-0.38241 0.023051,-0.0339 0.056954,-0.0488 0.2237589,-0.10438 0.048861,-0.015 0.153017,-0.0622 0.2330609,-0.10284 0.123389,-0.0637 0.1531612,-0.0747 0.1979208,-0.0693 0.037971,0.005 0.1397982,0.0653 0.3689697,0.21446 l 0.3147094,0.20567 0.1095539,-0.108 0.1085207,-0.10852 -0.2077394,-0.31626 c -0.1410666,-0.2156 -0.2088058,-0.33231 -0.2129068,-0.36484 -0.00537,-0.0407 0.00826,-0.081 0.080098,-0.22479 0.047517,-0.0962 0.098045,-0.2182 0.1116211,-0.26975 0.031183,-0.11526 0.06207,-0.16288 0.120406,-0.1819 0.023051,-0.007 0.1900026,-0.0421 0.3689699,-0.076 0.179038,-0.0339 0.336273,-0.0651 0.3498493,-0.0692 0.020365,-0.007 0.022738,-0.0257 0.022738,-0.15452 v -0.14676 L 5.48752,293.47576 c -0.4623734,-0.0895 -0.452438,-0.0867 -0.4904092,-0.12195 -0.021709,-0.0204 -0.046402,-0.0731 -0.070797,-0.15038 -0.018951,-0.0665 -0.073063,-0.19295 -0.1178229,-0.28112 -0.067811,-0.13428 -0.080169,-0.16781 -0.073381,-0.20981 0.00403,-0.0366 0.066466,-0.14504 0.212907,-0.36742 l 0.2061891,-0.31781 -0.1085208,-0.10697 -0.1069699,-0.10852 -0.3172934,0.20619 c -0.2170094,0.14241 -0.3309655,0.2088 -0.3648356,0.21291 -0.042002,0.005 -0.078525,-0.007 -0.2154907,-0.076 -0.090792,-0.0447 -0.2087985,-0.0946 -0.2630331,-0.10955 -0.1207021,-0.0353 -0.1575062,-0.0533 -0.1819011,-0.0899 -0.00948,-0.0163 -0.046022,-0.17743 -0.078548,-0.35915 -0.033941,-0.18166 -0.065216,-0.34726 -0.069246,-0.36897 l -0.00827,-0.0367 z m -0.0093,1.24902 c 0.6902017,-0.007 1.2583211,0.55623 1.2583211,1.24643 3e-7,0.68483 -0.5626415,1.24747 -1.2474689,1.24747 -0.6848277,0 -1.2474692,-0.56264 -1.2474692,-1.24747 0,-0.5953 0.4243706,-1.10802 1.0169922,-1.22731 0.048861,-0.01 0.1462985,-0.0192 0.2196248,-0.0191 z"
       id="path930"
       inkscape:connector-curvature="0"
       sodipodi:nodetypes="sccccccccccccccccccscccccccccccccccscscccccccccccccccccsccccccccccccccccccscssscc" />
  </g>
</svg>
