<?xml version="1.0" encoding="UTF-8" standalone="no"?>
<svg
   xmlns:dc="http://purl.org/dc/elements/1.1/"
   xmlns:cc="http://creativecommons.org/ns#"
   xmlns:rdf="http://www.w3.org/1999/02/22-rdf-syntax-ns#"
   xmlns:svg="http://www.w3.org/2000/svg"
   xmlns="http://www.w3.org/2000/svg"
   xmlns:sodipodi="http://sodipodi.sourceforge.net/DTD/sodipodi-0.dtd"
   xmlns:inkscape="http://www.inkscape.org/namespaces/inkscape"
   width="25"
   height="25"
   viewBox="0 0 6.6145832 6.6145835"
   version="1.1"
   id="svg1468"
   inkscape:version="0.92.3 (2405546, 2018-03-11)"
   sodipodi:docname="newEmpty.svg">
  <defs
     id="defs1462" />
  <sodipodi:namedview
     id="base"
     pagecolor="#ffffff"
     bordercolor="#666666"
     borderopacity="1.0"
     inkscape:pageopacity="0.0"
     inkscape:pageshadow="2"
     inkscape:zoom="4"
     inkscape:cx="-91.159147"
     inkscape:cy="35.472549"
     inkscape:document-units="mm"
     inkscape:current-layer="layer1"
     showgrid="false"
     units="px"
     inkscape:window-width="1920"
     inkscape:window-height="1054"
     inkscape:window-x="0"
     inkscape:window-y="0"
     inkscape:window-maximized="1"
     inkscape:document-rotation="0" />
  <metadata
     id="metadata1465">
    <rdf:RDF>
      <cc:Work
         rdf:about="">
        <dc:format>image/svg+xml</dc:format>
        <dc:type
           rdf:resource="http://purl.org/dc/dcmitype/StillImage" />
        <dc:title />
      </cc:Work>
    </rdf:RDF>
  </metadata>
  <g
     inkscape:label="Layer 1"
     inkscape:groupmode="layer"
     id="layer1"
     transform="translate(0,-290.3854)">
    <path
       d="m 1.3146484,291.70005 v 3.98528 h 2.5781373 v -0.43924 H 3.2225424 c -0.1240711,0 -0.2440998,-0.0492 -0.3317629,-0.13695 -0.087644,-0.0877 -0.1369425,-0.20561 -0.1369425,-0.32969 3e-7,-0.1241 0.049228,-0.24468 0.1369425,-0.33228 0.087663,-0.0877 0.2076918,-0.13643 0.3317629,-0.13643 h 0.6702433 v -0.67231 c 0,-0.12409 0.048815,-0.24199 0.1364258,-0.32969 0.087669,-0.0877 0.2082157,-0.13901 0.3322793,-0.13901 0.1240727,0 0.2441006,0.0513 0.3317627,0.13901 0.086843,0.0875 0.1369425,0.20624 0.1369425,0.32969 v 0.67231 h 0.4697388 v -2.61069 z m 3.5155476,3.54604 v 0.43924 h 0.4697388 v -0.43924 z"
       style="color:#000000;font-style:normal;font-variant:normal;font-weight:normal;font-stretch:normal;font-size:10.58329964px;line-height:1.25;font-family:Chilanka;-inkscape-font-specification:Chilanka;font-variant-ligatures:normal;font-variant-position:normal;font-variant-caps:normal;font-variant-numeric:normal;font-variant-alternates:normal;font-feature-settings:normal;text-indent:0;text-align:start;text-decoration:none;text-decoration-line:none;text-decoration-style:solid;text-decoration-color:#000000;letter-spacing:0px;word-spacing:0px;text-transform:none;writing-mode:lr-tb;direction:ltr;text-orientation:mixed;dominant-baseline:auto;baseline-shift:baseline;text-anchor:start;white-space:normal;shape-padding:0;clip-rule:nonzero;display:inline;overflow:visible;visibility:visible;isolation:auto;mix-blend-mode:normal;color-interpolation:sRGB;color-interpolation-filters:linearRGB;solid-color:#000000;solid-opacity:1;vector-effect:none;fill:#f9f9f9;fill-opacity:1;fill-rule:nonzero;stroke:none;stroke-width:0.264999;stroke-linecap:butt;stroke-linejoin:miter;stroke-miterlimit:4;stroke-dasharray:none;stroke-dashoffset:0;stroke-opacity:1;color-rendering:auto;image-rendering:auto;shape-rendering:auto;text-rendering:auto;enable-background:accumulate"
       id="path816"
       inkscape:connector-curvature="0"
       sodipodi:nodetypes="ccccscccscscscsccccccccc" />
    <path
       id="path837"
       style="color:#000000;font-style:normal;font-variant:normal;font-weight:normal;font-stretch:normal;font-size:10.58329964px;line-height:1.25;font-family:Chilanka;-inkscape-font-specification:Chilanka;font-variant-ligatures:normal;font-variant-position:normal;font-variant-caps:normal;font-variant-numeric:normal;font-variant-alternates:normal;font-feature-settings:normal;text-indent:0;text-align:start;text-decoration:none;text-decoration-line:none;text-decoration-style:solid;text-decoration-color:#000000;letter-spacing:0px;word-spacing:0px;text-transform:none;writing-mode:lr-tb;direction:ltr;text-orientation:mixed;dominant-baseline:auto;baseline-shift:baseline;text-anchor:start;white-space:normal;shape-padding:0;clip-rule:nonzero;display:inline;overflow:visible;visibility:visible;isolation:auto;mix-blend-mode:normal;color-interpolation:sRGB;color-interpolation-filters:linearRGB;solid-color:#000000;solid-opacity:1;vector-effect:none;fill:#f9f9f9;fill-opacity:1;fill-rule:nonzero;stroke:none;stroke-width:0.22490107;stroke-linecap:butt;stroke-linejoin:miter;stroke-miterlimit:4;stroke-dasharray:none;stroke-dashoffset:0;stroke-opacity:1;color-rendering:auto;image-rendering:auto;shape-rendering:auto;text-rendering:auto;enable-background:accumulate"
       d="m 4.3614841,293.52636 c -0.078934,0 -0.1461819,0.0277 -0.2017426,0.0833 -0.055561,0.0556 -0.083328,0.12279 -0.083328,0.20174 v 0.68198 H 3.3944354 c -0.078943,0 -0.1461903,0.0277 -0.2017427,0.0833 -0.055552,0.0555 -0.083328,0.1228 -0.083328,0.20174 0,0.0789 0.027776,0.14619 0.083328,0.20175 0.055552,0.0556 0.1227998,0.0833 0.2017427,0.0833 H 4.076413 v 0.68198 c 0,0.0789 0.027768,0.14618 0.083328,0.20174 0.05555,0.0556 0.1227979,0.0833 0.2017425,0.0833 0.078934,0 0.1461821,-0.0277 0.2017427,-0.0833 0.055561,-0.0556 0.083328,-0.12279 0.083328,-0.20174 v -0.68198 h 0.6819776 c 0.078943,0 0.1461904,-0.0277 0.2017427,-0.0833 0.055553,-0.0556 0.083328,-0.1228 0.083328,-0.20175 0,-0.0789 -0.027776,-0.14618 -0.083328,-0.20174 -0.055552,-0.0556 -0.1228001,-0.0833 -0.2017427,-0.0833 H 4.6465553 v -0.68198 c 0,-0.0789 -0.027768,-0.14619 -0.083328,-0.20174 -0.055549,-0.0556 -0.1227978,-0.0833 -0.2017432,-0.0833 z m 5.7e-6,0.11222 c -0.052576,0 -0.086082,0.0132 -0.1227999,0.05 -0.036768,0.0367 -0.049558,0.0698 -0.049558,0.12236 v 0.79425 h -0.794252 c -0.052589,0 -0.085655,0.0146 -0.1223614,0.0513 -0.036662,0.0367 -0.049997,0.0703 -0.049997,0.1228 0,0.0525 0.013275,0.0843 0.049997,0.12104 0.036706,0.0367 0.069773,0.0514 0.1223614,0.0514 h 0.7942518 v 0.59645 h 0.3447166 v -0.59645 h 0.6240864 v -0.34648 H 4.5338481 V 293.811 c 0,-0.0525 -0.01328,-0.0856 -0.049997,-0.12236 -0.036701,-0.0367 -0.06977,-0.05 -0.1223614,-0.05 z"
       inkscape:connector-curvature="0"
       sodipodi:nodetypes="scscscscscscscscscscscscsccscscscscccccccsccc" />
  </g>
</svg>
