<?xml version="1.0" encoding="UTF-8" standalone="no"?>
<svg
   xmlns:dc="http://purl.org/dc/elements/1.1/"
   xmlns:cc="http://creativecommons.org/ns#"
   xmlns:rdf="http://www.w3.org/1999/02/22-rdf-syntax-ns#"
   xmlns:svg="http://www.w3.org/2000/svg"
   xmlns="http://www.w3.org/2000/svg"
   xmlns:sodipodi="http://sodipodi.sourceforge.net/DTD/sodipodi-0.dtd"
   xmlns:inkscape="http://www.inkscape.org/namespaces/inkscape"
   width="25"
   height="25"
   viewBox="0 0 6.6145832 6.6145835"
   version="1.1"
   id="svg1468"
   inkscape:version="1.0.2 (1.0.2+r75+1)"
   sodipodi:docname="nodeNew.svg">
  <defs
     id="defs1462" />
  <sodipodi:namedview
     id="base"
     pagecolor="#ffffff"
     bordercolor="#666666"
     borderopacity="1.0"
     inkscape:pageopacity="0.0"
     inkscape:pageshadow="2"
     inkscape:zoom="15.839192"
     inkscape:cx="12.706377"
     inkscape:cy="12.233989"
     inkscape:document-units="mm"
     inkscape:current-layer="layer1"
     showgrid="false"
     units="px"
     inkscape:window-width="1366"
     inkscape:window-height="737"
     inkscape:window-x="0"
     inkscape:window-y="0"
     inkscape:window-maximized="1"
     inkscape:document-rotation="0" />
  <metadata
     id="metadata1465">
    <rdf:RDF>
      <cc:Work
         rdf:about="">
        <dc:format>image/svg+xml</dc:format>
        <dc:type
           rdf:resource="http://purl.org/dc/dcmitype/StillImage" />
        <dc:title></dc:title>
      </cc:Work>
    </rdf:RDF>
  </metadata>
  <g
     inkscape:label="Layer 1"
     inkscape:groupmode="layer"
     id="layer1"
     transform="translate(0,-290.3854)">
    <path
       id="path841"
       style="font-style:normal;font-variant:normal;font-weight:normal;font-stretch:normal;font-size:10.5833px;line-height:1.25;font-family:Chilanka;-inkscape-font-specification:Chilanka;letter-spacing:0px;word-spacing:0px;fill:#f9f9f9;fill-opacity:1;stroke:none;stroke-width:0.264999;stroke-miterlimit:4;stroke-dasharray:none;stroke-opacity:1"
       d="m 4.2445539,292.15872 c -0.093007,0 -0.1722448,0.0327 -0.2377115,0.0982 -0.065467,0.0655 -0.098185,0.14469 -0.098185,0.23771 v 0.80357 H 3.1050887 c -0.093018,0 -0.1722548,0.0327 -0.2377117,0.0982 -0.065457,0.0654 -0.098185,0.14469 -0.098185,0.23771 0,0.093 0.032728,0.17225 0.098185,0.23772 0.065457,0.0655 0.144694,0.0982 0.2377117,0.0982 h 0.8035684 v 0.80357 c 0,0.093 0.032719,0.17224 0.098185,0.23771 0.065453,0.0655 0.1446916,0.0982 0.2377115,0.0982 0.093007,0 0.172245,-0.0327 0.2377117,-0.0982 0.065467,-0.0655 0.098185,-0.14469 0.098185,-0.23771 v -0.80357 h 0.8035684 c 0.093018,0 0.1722548,-0.0327 0.2377117,-0.0982 0.065457,-0.0655 0.098185,-0.1447 0.098185,-0.23772 0,-0.093 -0.032728,-0.17224 -0.098185,-0.23771 -0.065457,-0.0655 -0.1446943,-0.0982 -0.2377117,-0.0982 H 4.5804509 v -0.80357 c 0,-0.093 -0.032719,-0.17225 -0.098185,-0.23771 -0.065453,-0.0655 -0.1446916,-0.0982 -0.237712,-0.0982 z m -2.3382103,-0.84211 v 0.64027 a 0.58465206,0.58465206 0 0 0 -0.4402832,0.56689 0.58465206,0.58465206 0 0 0 0.2645833,0.48886 v 1.31413 a 0.58465206,0.58465206 0 0 0 -0.2645833,0.48886 0.58465206,0.58465206 0 0 0 0.4402832,0.56586 v 0.68678 h 0.2656168 v -0.6811 a 0.58465206,0.58465206 0 0 0 0.4630209,-0.57154 0.58465206,0.58465206 0 0 0 -0.287321,-0.50333 v -1.28571 a 0.58465206,0.58465206 0 0 0 0.287321,-0.50281 0.58465206,0.58465206 0 0 0 -0.4630209,-0.57206 v -0.6351 z" />
  </g>
</svg>
