<?xml version="1.0" encoding="UTF-8" standalone="no"?>
<svg
   xmlns:dc="http://purl.org/dc/elements/1.1/"
   xmlns:cc="http://creativecommons.org/ns#"
   xmlns:rdf="http://www.w3.org/1999/02/22-rdf-syntax-ns#"
   xmlns:svg="http://www.w3.org/2000/svg"
   xmlns="http://www.w3.org/2000/svg"
   xmlns:sodipodi="http://sodipodi.sourceforge.net/DTD/sodipodi-0.dtd"
   xmlns:inkscape="http://www.inkscape.org/namespaces/inkscape"
   width="25"
   height="25"
   viewBox="0 0 6.6145832 6.6145835"
   version="1.1"
   id="svg1468"
   inkscape:version="0.92.3 (2405546, 2018-03-11)"
   sodipodi:docname="nodeNew.svg">
  <defs
     id="defs1462" />
  <sodipodi:namedview
     id="base"
     pagecolor="#ffffff"
     bordercolor="#666666"
     borderopacity="1.0"
     inkscape:pageopacity="0.0"
     inkscape:pageshadow="2"
     inkscape:zoom="15.839192"
     inkscape:cx="-11.194986"
     inkscape:cy="8.1172093"
     inkscape:document-units="mm"
     inkscape:current-layer="layer1"
     showgrid="false"
     units="px"
     inkscape:window-width="1920"
     inkscape:window-height="1054"
     inkscape:window-x="0"
     inkscape:window-y="0"
     inkscape:window-maximized="1"
     inkscape:document-rotation="0" />
  <metadata
     id="metadata1465">
    <rdf:RDF>
      <cc:Work
         rdf:about="">
        <dc:format>image/svg+xml</dc:format>
        <dc:type
           rdf:resource="http://purl.org/dc/dcmitype/StillImage" />
        <dc:title />
      </cc:Work>
    </rdf:RDF>
  </metadata>
  <g
     inkscape:label="Layer 1"
     inkscape:groupmode="layer"
     id="layer1"
     transform="translate(0,-290.3854)">
    <path
       id="path841"
       style="font-style:normal;font-variant:normal;font-weight:normal;font-stretch:normal;font-size:10.58329964px;line-height:1.25;font-family:Chilanka;-inkscape-font-specification:Chilanka;letter-spacing:0px;word-spacing:0px;fill:#f9f9f9;fill-opacity:1;stroke:none;stroke-width:0.19299006;stroke-miterlimit:4;stroke-dasharray:none;stroke-opacity:1"
       d="m 4.2445538,292.55963 c -0.067734,0 -0.1254402,0.0238 -0.1731174,0.0715 -0.047677,0.0477 -0.071505,0.10537 -0.071505,0.17312 v 0.58521 H 3.4147188 c -0.067742,0 -0.1254475,0.0238 -0.1731176,0.0715 -0.04767,0.0476 -0.071505,0.10538 -0.071505,0.17312 0,0.0677 0.023835,0.12545 0.071505,0.17313 0.04767,0.0477 0.1053759,0.0715 0.1731176,0.0715 h 0.5852125 v 0.58521 c 0,0.0677 0.023828,0.12544 0.071505,0.17312 0.047667,0.0477 0.1053741,0.0715 0.1731174,0.0715 0.067734,0 0.1254404,-0.0238 0.1731176,-0.0715 0.047677,-0.0477 0.071505,-0.10537 0.071505,-0.17312 v -0.58521 h 0.5852125 c 0.067742,0 0.1254475,-0.0238 0.1731176,-0.0715 0.04767,-0.0477 0.071505,-0.10539 0.071505,-0.17313 0,-0.0677 -0.023835,-0.12544 -0.071505,-0.17312 -0.04767,-0.0477 -0.1053761,-0.0715 -0.1731176,-0.0715 h -0.585212 v -0.58521 c 0,-0.0677 -0.023828,-0.12545 -0.071505,-0.17312 -0.047667,-0.0477 -0.1053742,-0.0715 -0.173118,-0.0715 z"
       inkscape:connector-curvature="0"
       sodipodi:nodetypes="scscscscscscscscssscscscs" />
    <g
       id="g834">
      <path
         d="m 1.9063436,291.31661 v 0.64027 c -0.2591368,0.066 -0.4404399,0.29947 -0.4402831,0.56689 1.06e-4,0.32274 0.2617158,0.58435 0.5844604,0.58446 0.3227445,-1.1e-4 0.5843543,-0.26172 0.5844603,-0.58446 9.44e-5,-0.27609 -0.1929673,-0.51462 -0.4630208,-0.57206 v -0.6351 z m 0.1441773,2.91403 c -0.3229477,1.1e-4 -0.5846416,0.26203 -0.5844604,0.58498 8.1e-5,0.26722 0.1813341,0.50038 0.4402831,0.56637 v 0.68627 h 0.2656168 v -0.6811 c 0.2698627,-0.0574 0.4628698,-0.29564 0.4630208,-0.57154 1.812e-4,-0.32295 -0.2615127,-0.58487 -0.5844603,-0.58498 z"
         style="color:#000000;font-style:normal;font-variant:normal;font-weight:normal;font-stretch:normal;font-size:medium;line-height:normal;font-family:sans-serif;font-variant-ligatures:normal;font-variant-position:normal;font-variant-caps:normal;font-variant-numeric:normal;font-variant-alternates:normal;font-feature-settings:normal;text-indent:0;text-align:start;text-decoration:none;text-decoration-line:none;text-decoration-style:solid;text-decoration-color:#000000;letter-spacing:normal;word-spacing:normal;text-transform:none;writing-mode:lr-tb;direction:ltr;text-orientation:mixed;dominant-baseline:auto;baseline-shift:baseline;text-anchor:start;white-space:normal;shape-padding:0;clip-rule:nonzero;display:inline;overflow:visible;visibility:visible;opacity:1;isolation:auto;mix-blend-mode:normal;color-interpolation:sRGB;color-interpolation-filters:linearRGB;solid-color:#000000;solid-opacity:1;vector-effect:none;fill:#f9f9f9;fill-opacity:1;fill-rule:evenodd;stroke:none;stroke-width:1.0000006;stroke-linecap:butt;stroke-linejoin:miter;stroke-miterlimit:4;stroke-dasharray:none;stroke-dashoffset:0;stroke-opacity:1;color-rendering:auto;image-rendering:auto;shape-rendering:auto;text-rendering:auto;enable-background:accumulate"
         id="path818"
         inkscape:connector-curvature="0"
         sodipodi:nodetypes="cccccccccccccccc" />
      <path
         sodipodi:nodetypes="ccccc"
         inkscape:connector-curvature="0"
         id="path816"
         style="color:#000000;font-style:normal;font-variant:normal;font-weight:normal;font-stretch:normal;font-size:medium;line-height:normal;font-family:sans-serif;font-variant-ligatures:normal;font-variant-position:normal;font-variant-caps:normal;font-variant-numeric:normal;font-variant-alternates:normal;font-feature-settings:normal;text-indent:0;text-align:start;text-decoration:none;text-decoration-line:none;text-decoration-style:solid;text-decoration-color:#000000;letter-spacing:normal;word-spacing:normal;text-transform:none;writing-mode:lr-tb;direction:ltr;text-orientation:mixed;dominant-baseline:auto;baseline-shift:baseline;text-anchor:start;white-space:normal;shape-padding:0;clip-rule:nonzero;display:inline;overflow:visible;visibility:visible;opacity:1;isolation:auto;mix-blend-mode:normal;color-interpolation:sRGB;color-interpolation-filters:linearRGB;solid-color:#000000;solid-opacity:1;vector-effect:none;fill:#f9f9f9;fill-opacity:1;fill-rule:evenodd;stroke:none;stroke-width:1.0000006;stroke-linecap:butt;stroke-linejoin:miter;stroke-miterlimit:4;stroke-dasharray:none;stroke-dashoffset:0;stroke-opacity:1;color-rendering:auto;image-rendering:auto;shape-rendering:auto;text-rendering:auto;enable-background:accumulate"
         d="m 1.9063436,292.42692 v 2.67189 l 0.2656168,-0.005 v -2.66672 z" />
    </g>
  </g>
</svg>
