<?xml version="1.0" encoding="UTF-8" standalone="no"?>
<svg
   xmlns:dc="http://purl.org/dc/elements/1.1/"
   xmlns:cc="http://creativecommons.org/ns#"
   xmlns:rdf="http://www.w3.org/1999/02/22-rdf-syntax-ns#"
   xmlns:svg="http://www.w3.org/2000/svg"
   xmlns="http://www.w3.org/2000/svg"
   xmlns:sodipodi="http://sodipodi.sourceforge.net/DTD/sodipodi-0.dtd"
   xmlns:inkscape="http://www.inkscape.org/namespaces/inkscape"
   width="25"
   height="25"
   viewBox="0 0 6.6145832 6.6145835"
   version="1.1"
   id="svg1468"
   inkscape:version="1.0.2 (1.0.2+r75+1)"
   sodipodi:docname="onionDisabled.svg">
  <defs
     id="defs1462" />
  <sodipodi:namedview
     id="base"
     pagecolor="#ffffff"
     bordercolor="#666666"
     borderopacity="1.0"
     inkscape:pageopacity="0.0"
     inkscape:pageshadow="2"
     inkscape:zoom="22.627417"
     inkscape:cx="14.263438"
     inkscape:cy="13.046129"
     inkscape:document-units="mm"
     inkscape:current-layer="layer1"
     showgrid="false"
     units="px"
     inkscape:window-width="1366"
     inkscape:window-height="737"
     inkscape:window-x="0"
     inkscape:window-y="0"
     inkscape:window-maximized="1"
     inkscape:document-rotation="0" />
  <metadata
     id="metadata1465">
    <rdf:RDF>
      <cc:Work
         rdf:about="">
        <dc:format>image/svg+xml</dc:format>
        <dc:type
           rdf:resource="http://purl.org/dc/dcmitype/StillImage" />
        <dc:title></dc:title>
      </cc:Work>
    </rdf:RDF>
  </metadata>
  <g
     inkscape:label="Layer 1"
     inkscape:groupmode="layer"
     id="layer1"
     transform="translate(0,-290.3854)">
    <path
       style="color:#000000;font-style:normal;font-variant:normal;font-weight:normal;font-stretch:normal;font-size:medium;line-height:normal;font-family:sans-serif;font-variant-ligatures:normal;font-variant-position:normal;font-variant-caps:normal;font-variant-numeric:normal;font-variant-alternates:normal;font-variant-east-asian:normal;font-feature-settings:normal;font-variation-settings:normal;text-indent:0;text-align:start;text-decoration:none;text-decoration-line:none;text-decoration-style:solid;text-decoration-color:#000000;letter-spacing:normal;word-spacing:normal;text-transform:none;writing-mode:lr-tb;direction:ltr;text-orientation:mixed;dominant-baseline:auto;baseline-shift:baseline;text-anchor:start;white-space:normal;shape-padding:0;shape-margin:0;inline-size:0;clip-rule:nonzero;display:inline;overflow:visible;visibility:visible;opacity:1;isolation:auto;mix-blend-mode:normal;color-interpolation:sRGB;color-interpolation-filters:linearRGB;solid-color:#000000;solid-opacity:1;vector-effect:none;fill:#f9f9f9;fill-opacity:1;fill-rule:evenodd;stroke:none;stroke-linecap:round;stroke-linejoin:miter;stroke-miterlimit:4;stroke-dasharray:0.396875, 0.79374999999999996;stroke-dashoffset:0;stroke-opacity:1;color-rendering:auto;image-rendering:auto;shape-rendering:auto;text-rendering:auto;enable-background:accumulate;stop-color:#000000;stop-opacity:1"
       d="m -59.255859,289.17777 a 0.1984375,0.1984375 0 0 0 -0.117188,0.0332 c -0.03042,0.0204 -0.06637,0.0395 -0.105469,0.0586 v -0.002 c -0.04363,0.021 -0.08855,0.0403 -0.134765,0.0547 l -0.04687,0.0137 -0.01172,0.002 a 0.1984375,0.1984375 0 0 0 -0.148437,0.23828 0.1984375,0.1984375 0 0 0 0.238281,0.14844 l 0.02148,-0.006 0.0625,-0.0176 h 0.0039 c 0.06492,-0.0202 0.12824,-0.0447 0.189453,-0.0742 v -0.002 c 0.04895,-0.0239 0.101253,-0.0518 0.152344,-0.0859 a 0.1984375,0.1984375 0 0 0 0.05273,-0.27344 0.1984375,0.1984375 0 0 0 -0.15625,-0.0879 z"
       transform="rotate(-12.528427)"
       id="path870" />
    <path
       style="color:#000000;font-style:normal;font-variant:normal;font-weight:normal;font-stretch:normal;font-size:medium;line-height:normal;font-family:sans-serif;font-variant-ligatures:normal;font-variant-position:normal;font-variant-caps:normal;font-variant-numeric:normal;font-variant-alternates:normal;font-variant-east-asian:normal;font-feature-settings:normal;font-variation-settings:normal;text-indent:0;text-align:start;text-decoration:none;text-decoration-line:none;text-decoration-style:solid;text-decoration-color:#000000;letter-spacing:normal;word-spacing:normal;text-transform:none;writing-mode:lr-tb;direction:ltr;text-orientation:mixed;dominant-baseline:auto;baseline-shift:baseline;text-anchor:start;white-space:normal;shape-padding:0;shape-margin:0;inline-size:0;clip-rule:nonzero;display:inline;overflow:visible;visibility:visible;opacity:1;isolation:auto;mix-blend-mode:normal;color-interpolation:sRGB;color-interpolation-filters:linearRGB;solid-color:#000000;solid-opacity:1;vector-effect:none;fill:#f9f9f9;fill-opacity:1;fill-rule:evenodd;stroke:none;stroke-linecap:round;stroke-linejoin:miter;stroke-miterlimit:4;stroke-dasharray:0.396875, 0.79374999999999996;stroke-dashoffset:0;stroke-opacity:1;color-rendering:auto;image-rendering:auto;shape-rendering:auto;text-rendering:auto;enable-background:accumulate;stop-color:#000000;stop-opacity:1"
       d="m -60.728516,289.03715 a 0.1984375,0.1984375 0 0 0 -0.144531,0.0625 0.1984375,0.1984375 0 0 0 0.0059,0.28125 l 0.02344,0.0215 0.04883,0.041 0.002,0.002 c 0.05157,0.0426 0.106878,0.0824 0.164063,0.11719 0.04355,0.026 0.09323,0.0543 0.148437,0.0781 a 0.1984375,0.1984375 0 0 0 0.259766,-0.10351 0.1984375,0.1984375 0 0 0 -0.103516,-0.26172 c -0.0307,-0.0133 -0.06291,-0.0308 -0.09961,-0.0527 -0.04083,-0.0248 -0.07835,-0.0535 -0.115234,-0.084 l 0.002,0.004 -0.03906,-0.0352 -0.01563,-0.0156 a 0.1984375,0.1984375 0 0 0 -0.136719,-0.0547 z"
       transform="rotate(-12.528427)"
       id="path868" />
    <path
       style="color:#000000;font-style:normal;font-variant:normal;font-weight:normal;font-stretch:normal;font-size:medium;line-height:normal;font-family:sans-serif;font-variant-ligatures:normal;font-variant-position:normal;font-variant-caps:normal;font-variant-numeric:normal;font-variant-alternates:normal;font-variant-east-asian:normal;font-feature-settings:normal;font-variation-settings:normal;text-indent:0;text-align:start;text-decoration:none;text-decoration-line:none;text-decoration-style:solid;text-decoration-color:#000000;letter-spacing:normal;word-spacing:normal;text-transform:none;writing-mode:lr-tb;direction:ltr;text-orientation:mixed;dominant-baseline:auto;baseline-shift:baseline;text-anchor:start;white-space:normal;shape-padding:0;shape-margin:0;inline-size:0;clip-rule:nonzero;display:inline;overflow:visible;visibility:visible;opacity:1;isolation:auto;mix-blend-mode:normal;color-interpolation:sRGB;color-interpolation-filters:linearRGB;solid-color:#000000;solid-opacity:1;vector-effect:none;fill:#f9f9f9;fill-opacity:1;fill-rule:evenodd;stroke:none;stroke-linecap:round;stroke-linejoin:miter;stroke-miterlimit:4;stroke-dasharray:0.396875, 0.79374999999999996;stroke-dashoffset:0;stroke-opacity:1;color-rendering:auto;image-rendering:auto;shape-rendering:auto;text-rendering:auto;enable-background:accumulate;stop-color:#000000;stop-opacity:1"
       d="m -58.775391,287.83598 a 0.1984375,0.1984375 0 0 0 -0.04883,0.008 0.1984375,0.1984375 0 0 0 -0.130859,0.24805 c 0.01248,0.0404 0.02215,0.085 0.0293,0.13086 l 0.0059,0.0488 0.0039,0.0508 0.002,0.0332 a 0.1984375,0.1984375 0 0 0 0,0.0117 v 0.0117 l -0.002,0.0449 -0.0039,0.0508 -0.0059,0.0508 -0.0098,0.0488 -0.01172,0.0469 -0.01172,0.0469 -0.01172,0.0312 a 0.1984375,0.1984375 0 0 0 0.125,0.25195 0.1984375,0.1984375 0 0 0 0.251953,-0.125 l 0.01367,-0.0391 0.01758,-0.0664 0.01563,-0.0684 0.01367,-0.0684 0.0078,-0.0684 0.0059,-0.0703 0.002,-0.0645 a 0.1984375,0.1984375 0 0 0 0,-0.002 0.1984375,0.1984375 0 0 0 0,-0.0117 l -0.002,-0.0664 -0.0059,-0.0703 -0.0078,-0.0664 -0.002,-0.004 c -0.0095,-0.0608 -0.02163,-0.12276 -0.04102,-0.18555 a 0.1984375,0.1984375 0 0 0 -0.199219,-0.13867 z"
       transform="rotate(-12.528427)"
       id="path864" />
    <path
       style="color:#000000;font-style:normal;font-variant:normal;font-weight:normal;font-stretch:normal;font-size:medium;line-height:normal;font-family:sans-serif;font-variant-ligatures:normal;font-variant-position:normal;font-variant-caps:normal;font-variant-numeric:normal;font-variant-alternates:normal;font-variant-east-asian:normal;font-feature-settings:normal;font-variation-settings:normal;text-indent:0;text-align:start;text-decoration:none;text-decoration-line:none;text-decoration-style:solid;text-decoration-color:#000000;letter-spacing:normal;word-spacing:normal;text-transform:none;writing-mode:lr-tb;direction:ltr;text-orientation:mixed;dominant-baseline:auto;baseline-shift:baseline;text-anchor:start;white-space:normal;shape-padding:0;shape-margin:0;inline-size:0;clip-rule:nonzero;display:inline;overflow:visible;visibility:visible;opacity:1;isolation:auto;mix-blend-mode:normal;color-interpolation:sRGB;color-interpolation-filters:linearRGB;solid-color:#000000;solid-opacity:1;vector-effect:none;fill:#f9f9f9;fill-opacity:1;fill-rule:evenodd;stroke:none;stroke-linecap:round;stroke-linejoin:miter;stroke-miterlimit:4;stroke-dasharray:0.396875, 0.79374999999999996;stroke-dashoffset:0;stroke-opacity:1;color-rendering:auto;image-rendering:auto;shape-rendering:auto;text-rendering:auto;enable-background:accumulate;stop-color:#000000;stop-opacity:1"
       d="m -67.443359,284.92776 a 0.1984375,0.1984375 0 0 0 -0.19336,0.16407 l -0.0078,0.0469 -0.0098,0.0703 -0.0059,0.0703 -0.002,0.0684 v 0.002 c 1.04e-4,0.0658 0.0053,0.1333 0.01563,0.20117 a 0.1984375,0.1984375 0 0 0 0.226562,0.16797 0.1984375,0.1984375 0 0 0 0.166016,-0.22656 c -0.0066,-0.0437 -0.0094,-0.0899 -0.0098,-0.13672 v -0.006 -0.0508 l 0.0039,-0.0508 0.0078,-0.0488 0.0059,-0.0371 a 0.1984375,0.1984375 0 0 0 -0.160156,-0.23047 0.1984375,0.1984375 0 0 0 -0.03711,-0.004 z"
       transform="rotate(-13.566417)"
       id="path878" />
    <path
       style="color:#000000;font-style:normal;font-variant:normal;font-weight:normal;font-stretch:normal;font-size:medium;line-height:normal;font-family:sans-serif;font-variant-ligatures:normal;font-variant-position:normal;font-variant-caps:normal;font-variant-numeric:normal;font-variant-alternates:normal;font-variant-east-asian:normal;font-feature-settings:normal;font-variation-settings:normal;text-indent:0;text-align:start;text-decoration:none;text-decoration-line:none;text-decoration-style:solid;text-decoration-color:#000000;letter-spacing:normal;word-spacing:normal;text-transform:none;writing-mode:lr-tb;direction:ltr;text-orientation:mixed;dominant-baseline:auto;baseline-shift:baseline;text-anchor:start;white-space:normal;shape-padding:0;shape-margin:0;inline-size:0;clip-rule:nonzero;display:inline;overflow:visible;visibility:visible;opacity:1;isolation:auto;mix-blend-mode:normal;color-interpolation:sRGB;color-interpolation-filters:linearRGB;solid-color:#000000;solid-opacity:1;vector-effect:none;fill:#f9f9f9;fill-opacity:1;fill-rule:evenodd;stroke:none;stroke-linecap:round;stroke-linejoin:miter;stroke-miterlimit:4;stroke-dasharray:0.396875, 0.79374999999999996;stroke-dashoffset:0;stroke-opacity:1;color-rendering:auto;image-rendering:auto;shape-rendering:auto;text-rendering:auto;enable-background:accumulate;stop-color:#000000;stop-opacity:1"
       d="m -66.705078,284.04691 a 0.1984375,0.1984375 0 0 0 -0.08398,0.0137 l -0.02148,0.008 h -0.002 c -0.06212,0.0263 -0.122099,0.0588 -0.179688,0.0937 -0.06595,0.0404 -0.131965,0.0858 -0.193359,0.14062 a 0.1984375,0.1984375 0 0 0 -0.01563,0.28125 0.1984375,0.1984375 0 0 0 0.279297,0.0156 c 0.04001,-0.0357 0.08685,-0.0691 0.136719,-0.0996 0.04111,-0.025 0.0827,-0.0457 0.126953,-0.0645 l 0.01367,-0.006 a 0.1984375,0.1984375 0 0 0 0.113281,-0.25781 0.1984375,0.1984375 0 0 0 -0.173828,-0.125 z"
       transform="rotate(-13.566417)"
       id="path874" />
    <path
       style="color:#000000;font-style:normal;font-variant:normal;font-weight:normal;font-stretch:normal;font-size:medium;line-height:normal;font-family:sans-serif;font-variant-ligatures:normal;font-variant-position:normal;font-variant-caps:normal;font-variant-numeric:normal;font-variant-alternates:normal;font-variant-east-asian:normal;font-feature-settings:normal;font-variation-settings:normal;text-indent:0;text-align:start;text-decoration:none;text-decoration-line:none;text-decoration-style:solid;text-decoration-color:#000000;letter-spacing:normal;word-spacing:normal;text-transform:none;writing-mode:lr-tb;direction:ltr;text-orientation:mixed;dominant-baseline:auto;baseline-shift:baseline;text-anchor:start;white-space:normal;shape-padding:0;shape-margin:0;inline-size:0;clip-rule:nonzero;display:inline;overflow:visible;visibility:visible;opacity:1;isolation:auto;mix-blend-mode:normal;color-interpolation:sRGB;color-interpolation-filters:linearRGB;solid-color:#000000;solid-opacity:1;vector-effect:none;fill:#f9f9f9;fill-opacity:1;fill-rule:evenodd;stroke:none;stroke-linecap:round;stroke-linejoin:miter;stroke-miterlimit:4;stroke-dasharray:0.396875, 0.79374999999999996;stroke-dashoffset:0;stroke-opacity:1;color-rendering:auto;image-rendering:auto;shape-rendering:auto;text-rendering:auto;enable-background:accumulate;stop-color:#000000;stop-opacity:1"
       d="m -65.958984,284.00781 a 0.1984375,0.1984375 0 0 0 -0.169922,0.14453 0.1984375,0.1984375 0 0 0 0.136718,0.24414 l 0.01563,0.006 0.04687,0.0156 c 0.04527,0.0166 0.09041,0.0356 0.132813,0.0586 l 0.04102,0.0234 0.03906,0.0273 0.01953,0.0117 a 0.1984375,0.1984375 0 0 0 0.275391,-0.0469 0.1984375,0.1984375 0 0 0 -0.04492,-0.27539 l -0.02734,-0.0195 -0.05664,-0.0352 -0.05469,-0.0332 -0.002,-0.002 c -0.05944,-0.0323 -0.121975,-0.0588 -0.185547,-0.082 l -0.002,-0.002 -0.0625,-0.0215 -0.02734,-0.006 a 0.1984375,0.1984375 0 0 0 -0.07422,-0.008 z"
       transform="rotate(-13.566417)"
       id="circle819" />
    <circle
       style="fill:#f9f9f9;fill-opacity:1;fill-rule:evenodd;stroke:none;stroke-width:0.301097;stroke-linecap:round;stroke-linejoin:miter;stroke-miterlimit:4;stroke-dasharray:none;stroke-dashoffset:0;stroke-opacity:1"
       id="path815"
       cx="3.3072922"
       cy="293.69269"
       r="1.1916902" />
  </g>
</svg>
