<?xml version="1.0" encoding="UTF-8" standalone="no"?>
<svg
   xmlns:dc="http://purl.org/dc/elements/1.1/"
   xmlns:cc="http://creativecommons.org/ns#"
   xmlns:rdf="http://www.w3.org/1999/02/22-rdf-syntax-ns#"
   xmlns:svg="http://www.w3.org/2000/svg"
   xmlns="http://www.w3.org/2000/svg"
   xmlns:sodipodi="http://sodipodi.sourceforge.net/DTD/sodipodi-0.dtd"
   xmlns:inkscape="http://www.inkscape.org/namespaces/inkscape"
   width="25"
   height="25"
   viewBox="0 0 6.6145832 6.6145835"
   version="1.1"
   id="svg1468"
   inkscape:version="1.0.2 (1.0.2+r75+1)"
   sodipodi:docname="drawPathUnchecked.svg">
  <defs
     id="defs1462">
    <inkscape:path-effect
       effect="powerstroke"
       id="path-effect949"
       is_visible="true"
       offset_points="0,1.0154412"
       sort_points="true"
       interpolator_type="CubicBezierJohan"
       interpolator_beta="0.2"
       start_linecap_type="zerowidth"
       linejoin_type="extrp_arc"
       miter_limit="4"
       end_linecap_type="zerowidth" />
    <inkscape:path-effect
       effect="spiro"
       id="path-effect861"
       is_visible="true" />
  </defs>
  <sodipodi:namedview
     id="base"
     pagecolor="#ffffff"
     bordercolor="#666666"
     borderopacity="1.0"
     inkscape:pageopacity="0.0"
     inkscape:pageshadow="2"
     inkscape:zoom="15.839192"
     inkscape:cx="4.6423559"
     inkscape:cy="14.986457"
     inkscape:document-units="mm"
     inkscape:current-layer="layer1"
     showgrid="false"
     units="px"
     inkscape:window-width="1366"
     inkscape:window-height="737"
     inkscape:window-x="0"
     inkscape:window-y="0"
     inkscape:window-maximized="1"
     inkscape:document-rotation="0" />
  <metadata
     id="metadata1465">
    <rdf:RDF>
      <cc:Work
         rdf:about="">
        <dc:format>image/svg+xml</dc:format>
        <dc:type
           rdf:resource="http://purl.org/dc/dcmitype/StillImage" />
        <dc:title></dc:title>
      </cc:Work>
    </rdf:RDF>
  </metadata>
  <g
     inkscape:label="Layer 1"
     inkscape:groupmode="layer"
     id="layer1"
     transform="translate(0,-290.3854)">
    <path
       id="path862"
       style="color:#000000;font-style:normal;font-variant:normal;font-weight:normal;font-stretch:normal;font-size:medium;line-height:normal;font-family:sans-serif;font-variant-ligatures:normal;font-variant-position:normal;font-variant-caps:normal;font-variant-numeric:normal;font-variant-alternates:normal;font-variant-east-asian:normal;font-feature-settings:normal;font-variation-settings:normal;text-indent:0;text-align:start;text-decoration:none;text-decoration-line:none;text-decoration-style:solid;text-decoration-color:#000000;letter-spacing:normal;word-spacing:normal;text-transform:none;writing-mode:lr-tb;direction:ltr;text-orientation:mixed;dominant-baseline:auto;baseline-shift:baseline;text-anchor:start;white-space:normal;shape-padding:0;shape-margin:0;inline-size:0;clip-rule:nonzero;display:inline;overflow:visible;visibility:visible;opacity:1;isolation:auto;mix-blend-mode:normal;color-interpolation:sRGB;color-interpolation-filters:linearRGB;solid-color:#000000;solid-opacity:1;vector-effect:none;fill:#f9f9f9;fill-opacity:1;fill-rule:nonzero;stroke:none;stroke-linecap:round;stroke-linejoin:round;stroke-miterlimit:4;stroke-dasharray:none;stroke-dashoffset:0;stroke-opacity:1;paint-order:stroke markers fill;color-rendering:auto;image-rendering:auto;shape-rendering:auto;text-rendering:auto;enable-background:accumulate;stop-color:#000000;stop-opacity:1"
       d="m 5.062721,294.2646 a 0.1322915,0.1322915 0 0 0 -0.086603,0.16526 c 0,0 0.074164,0.25835 0.04819,0.49697 -0.012987,0.11931 -0.048707,0.22711 -0.1183742,0.30142 -0.06967,0.0743 -0.1755981,0.12903 -0.3759055,0.1286 -0.2267089,-4.9e-4 -0.3748724,-0.002 -0.4733047,10e-4 -0.049217,0.002 -0.085837,0.003 -0.1224903,0.011 -0.018287,0.004 -0.036937,0.01 -0.060616,0.0227 -0.023751,0.0127 -0.056168,0.0381 -0.071831,0.0782 -0.015664,0.0401 -0.00985,0.0801 -0.00212,0.1038 0.00773,0.0237 0.017883,0.0377 0.02567,0.0497 0.015575,0.024 0.028682,0.0397 0.041934,0.0574 0.026502,0.0355 0.049842,0.0743 0.061769,0.12286 0.00855,0.0348 0.00354,0.0352 -0.010827,0.0495 -0.014337,0.0144 -0.049064,0.0322 -0.093489,0.0358 -0.088981,0.007 -0.1828473,-0.0257 -0.2147283,-0.14196 -0.034051,-0.1242 -0.1196953,-0.21955 -0.2201393,-0.266 -0.1004466,-0.0464 -0.2118153,-0.0506 -0.3146635,-0.0257 -0.2056963,0.0497 -0.399638,0.24304 -0.3728724,0.50426 a 0.1322915,0.1322915 0 0 0 0.1455382,0.11829 0.1322915,0.1322915 0 0 0 0.1182806,-0.14554 c -0.012896,-0.12585 0.067475,-0.19354 0.1712579,-0.21865 0.052021,-0.0121 0.1053033,-0.009 0.1418264,0.008 0.036523,0.0169 0.061266,0.0396 0.076345,0.0946 0.066398,0.24215 0.295901,0.35121 0.4883515,0.33671 0.096234,-0.007 0.1896703,-0.0402 0.2611169,-0.11157 0.071473,-0.0713 0.1095499,-0.18902 0.081886,-0.30161 -0.01325,-0.0539 -0.036872,-0.0797 -0.058346,-0.11772 0.089353,-0.002 0.2037826,-0.002 0.4003312,-0.002 0.2536372,5.2e-4 0.4469014,-0.0806 0.5698651,-0.21175 0.1229639,-0.13119 0.1712945,-0.29886 0.1881814,-0.45401 0.033774,-0.31029 -0.058405,-0.60146 -0.058405,-0.60146 a 0.1322915,0.1322915 0 0 0 -0.1657684,-0.0885 z m 0.2441679,-2.70878 c -0.2333984,-0.2259 -0.5185753,-0.39827 -0.62119,-0.29273 l -0.3868179,0.39783 c 0.2037104,0.1041 0.3820796,0.23361 0.5330056,0.3886 0.1518973,0.15599 0.2773628,0.33598 0.3856842,0.53036 l 0.3996654,-0.41106 c 0.1046713,-0.10765 -0.076949,-0.38709 -0.3103473,-0.613 z m -0.618041,0.63738 c -0.15058,-0.15506 -0.3285919,-0.28201 -0.5385497,-0.37946 l -2.522556,2.5944 -0.376859,0.92553 c 0.042543,-0.0146 0.087639,-0.0257 0.1394006,-0.0198 0.075939,0.009 0.1568211,0.07 0.1866305,0.15575 0.035197,0.10127 0.022254,0.19592 0.011869,0.28033 l 0.9704956,-0.43607 2.5099883,-2.58147 c -0.1063168,-0.20217 -0.2300599,-0.38433 -0.380425,-0.53917 z m -3.2081782,3.60529 c 0.00884,-0.10199 0.028592,-0.21081 -7.476e-4,-0.29521 -0.019996,-0.0576 -0.056905,-0.0826 -0.1010581,-0.0875 -0.044045,-0.004 -0.095588,0.0102 -0.1443296,0.0323 -0.021834,0.01 -0.021335,0.0147 -0.041281,0.0263 l -0.22623084,0.55509 z" />
  </g>
</svg>
