<?xml version="1.0" encoding="UTF-8" standalone="no"?>
<svg
   xmlns:dc="http://purl.org/dc/elements/1.1/"
   xmlns:cc="http://creativecommons.org/ns#"
   xmlns:rdf="http://www.w3.org/1999/02/22-rdf-syntax-ns#"
   xmlns:svg="http://www.w3.org/2000/svg"
   xmlns="http://www.w3.org/2000/svg"
   xmlns:sodipodi="http://sodipodi.sourceforge.net/DTD/sodipodi-0.dtd"
   xmlns:inkscape="http://www.inkscape.org/namespaces/inkscape"
   width="25"
   height="25"
   viewBox="0 0 6.6145832 6.6145835"
   version="1.1"
   id="svg1468"
   inkscape:version="1.0.2 (1.0.2+r75+1)"
   sodipodi:docname="pathCreateUnchecked.svg">
  <defs
     id="defs1462">
    <inkscape:path-effect
       effect="fillet_chamfer"
       id="path-effect842"
       is_visible="true"
       lpeversion="1"
       satellites_param="F,0,1,1,0,0.30898962,0,1 @ F,0,0,1,0,0.30898962,0,1 @ F,0,0,1,0,0,0,1"
       unit="px"
       method="auto"
       mode="F"
       radius="0"
       chamfer_steps="1"
       flexible="false"
       use_knot_distance="true"
       apply_no_radius="true"
       apply_with_radius="true"
       only_selected="false"
       hide_knots="false" />
  </defs>
  <sodipodi:namedview
     id="base"
     pagecolor="#ffffff"
     bordercolor="#666666"
     borderopacity="1.0"
     inkscape:pageopacity="0.0"
     inkscape:pageshadow="2"
     inkscape:zoom="15.839192"
     inkscape:cx="7.9734271"
     inkscape:cy="11.775494"
     inkscape:document-units="mm"
     inkscape:current-layer="layer1"
     showgrid="false"
     units="px"
     inkscape:window-width="1366"
     inkscape:window-height="737"
     inkscape:window-x="0"
     inkscape:window-y="0"
     inkscape:window-maximized="1"
     inkscape:document-rotation="0"
     inkscape:snap-object-midpoints="true" />
  <metadata
     id="metadata1465">
    <rdf:RDF>
      <cc:Work
         rdf:about="">
        <dc:format>image/svg+xml</dc:format>
        <dc:type
           rdf:resource="http://purl.org/dc/dcmitype/StillImage" />
        <dc:title></dc:title>
      </cc:Work>
    </rdf:RDF>
  </metadata>
  <g
     inkscape:label="Layer 1"
     inkscape:groupmode="layer"
     id="layer1"
     transform="translate(0,-290.3854)">
    <path
       id="path839"
       style="fill:#f9f9f9;fill-rule:evenodd;stroke-width:0.302202"
       inkscape:transform-center-x="-0.25990752"
       inkscape:transform-center-y="0.099285256"
       d="m 3.623806,295.00565 1.9499049,-1.12924 A 0.20376006,0.20376006 0 0 0 5.573253,293.52339 L 3.7612616,292.4806 a 0.20376006,0.20376006 0 0 0 -0.3054753,0.17691 l 0.00329,2.25334 0.5093269,-0.88502 a 0.21071666,0.21071666 0 0 1 -0.00665,-0.22038 0.21071666,0.21071666 0 0 1 0.2877334,-0.0775 0.21071666,0.21071666 0 0 1 0.077528,0.28774 0.21071666,0.21071666 0 0 1 -0.1941867,0.10554 z m -2.2299167,-3.26599 a 0.45478183,0.45478183 0 0 0 -0.45475257,0.45476 0.45478183,0.45478183 0 0 0 0.45475257,0.45475 0.45478183,0.45478183 0 0 0 0.2046386,-0.0486 c 0.2787114,0.34384 0.4432076,0.72862 0.4630208,1.10381 0.020267,0.38378 -0.105491,0.76219 -0.4263305,1.10123 a 0.45478183,0.45478183 0 0 0 -0.2413289,-0.0693 0.45478183,0.45478183 0 0 0 -0.45475257,0.45475 0.45478183,0.45478183 0 0 0 0.45475257,0.45476 0.45478183,0.45478183 0 0 0 0.4345988,-0.32246 h 1.4944823 c 0.073469,2.9e-4 0.133097,-0.0593 0.1328084,-0.13281 2.91e-4,-0.0735 -0.059339,-0.1331 -0.1328084,-0.13281 H 1.8284881 a 0.45478183,0.45478183 0 0 0 -0.01912,-0.0522 c 0.3874692,-0.39574 0.5403614,-0.84876 0.5157308,-1.31517 -0.024447,-0.46295 -0.2002543,-0.89081 -0.5312338,-1.28003 a 0.45478183,0.45478183 0 0 0 0.034623,-0.0832 h 1.4810465 c 0.073469,2.9e-4 0.133097,-0.0593 0.1328084,-0.13281 2.886e-4,-0.0735 -0.059339,-0.1331 -0.1328084,-0.13281 H 1.8290048 a 0.45478183,0.45478183 0 0 0 -0.4351155,-0.32195 z" />
  </g>
</svg>
