<?xml version="1.0" encoding="UTF-8" standalone="no"?>
<svg
   xmlns:dc="http://purl.org/dc/elements/1.1/"
   xmlns:cc="http://creativecommons.org/ns#"
   xmlns:rdf="http://www.w3.org/1999/02/22-rdf-syntax-ns#"
   xmlns:svg="http://www.w3.org/2000/svg"
   xmlns="http://www.w3.org/2000/svg"
   xmlns:sodipodi="http://sodipodi.sourceforge.net/DTD/sodipodi-0.dtd"
   xmlns:inkscape="http://www.inkscape.org/namespaces/inkscape"
   width="25"
   height="25"
   viewBox="0 0 6.6145832 6.6145835"
   version="1.1"
   id="svg1468"
   inkscape:version="1.0.2 (1.0.2+r75+1)"
   sodipodi:docname="pointTransformUnchecked.svg">
  <defs
     id="defs1462" />
  <sodipodi:namedview
     id="base"
     pagecolor="#ffffff"
     bordercolor="#666666"
     borderopacity="1.0"
     inkscape:pageopacity="0.0"
     inkscape:pageshadow="2"
     inkscape:zoom="31.678384"
     inkscape:cx="8.2829883"
     inkscape:cy="10.987542"
     inkscape:document-units="mm"
     inkscape:current-layer="layer1"
     showgrid="false"
     units="px"
     inkscape:window-width="1366"
     inkscape:window-height="737"
     inkscape:window-x="0"
     inkscape:window-y="0"
     inkscape:window-maximized="1"
     inkscape:document-rotation="0"
     inkscape:snap-object-midpoints="true"
     inkscape:snap-global="true" />
  <metadata
     id="metadata1465">
    <rdf:RDF>
      <cc:Work
         rdf:about="">
        <dc:format>image/svg+xml</dc:format>
        <dc:type
           rdf:resource="http://purl.org/dc/dcmitype/StillImage" />
        <dc:title></dc:title>
      </cc:Work>
    </rdf:RDF>
  </metadata>
  <g
     inkscape:label="Layer 1"
     inkscape:groupmode="layer"
     id="layer1"
     transform="translate(0,-290.3854)">
    <path
       id="path4864"
       style="color:#000000;font-style:normal;font-variant:normal;font-weight:normal;font-stretch:normal;font-size:medium;line-height:normal;font-family:sans-serif;font-variant-ligatures:normal;font-variant-position:normal;font-variant-caps:normal;font-variant-numeric:normal;font-variant-alternates:normal;font-variant-east-asian:normal;font-feature-settings:normal;font-variation-settings:normal;text-indent:0;text-align:start;text-decoration:none;text-decoration-line:none;text-decoration-style:solid;text-decoration-color:#000000;letter-spacing:normal;word-spacing:normal;text-transform:none;writing-mode:lr-tb;direction:ltr;text-orientation:mixed;dominant-baseline:auto;baseline-shift:baseline;text-anchor:start;white-space:normal;shape-padding:0;shape-margin:0;inline-size:0;clip-rule:nonzero;display:inline;overflow:visible;visibility:visible;isolation:auto;mix-blend-mode:normal;color-interpolation:sRGB;color-interpolation-filters:linearRGB;solid-color:#000000;solid-opacity:1;vector-effect:none;fill:#f9f9f9;fill-opacity:1;fill-rule:evenodd;stroke:none;stroke-width:3.77953;stroke-linecap:butt;stroke-linejoin:miter;stroke-miterlimit:4;stroke-dasharray:none;stroke-dashoffset:0;stroke-opacity:1;color-rendering:auto;image-rendering:auto;shape-rendering:auto;text-rendering:auto;enable-background:accumulate;stop-color:#000000"
       d="m 13.960938,4.0976562 a 1.1322718,1.1322718 0 0 0 -1.119141,1.0644532 1.1322718,1.1322718 0 0 0 0.138672,0.6152344 l -2.09375,1.8554687 A 2.2097086,2.2097086 0 0 0 9.4082031,7.0644531 2.2097086,2.2097086 0 0 0 7.1992188,9.2753906 2.2097086,2.2097086 0 0 0 7.5996094,10.544922 l -2.0957032,1.857422 a 1.1322718,1.1322718 0 0 0 -0.5917968,-0.210938 1.1322718,1.1322718 0 0 0 -1.1972656,1.0625 1.1322718,1.1322718 0 0 0 1.0625,1.199219 1.1322718,1.1322718 0 0 0 1.1972656,-1.0625 1.1322718,1.1322718 0 0 0 -0.1367188,-0.613281 L 7.59375,11.220703 c -0.2390837,0.422195 -0.4372714,0.85487 -0.5957031,1.289063 -0.7531131,2.063976 -0.700507,4.165982 -0.5449219,5.503906 A 1.5035318,1.5035318 0 0 0 5.5292969,19.400391 1.5035318,1.5035318 0 0 0 7.0332031,20.902344 1.5035318,1.5035318 0 0 0 8.5371094,19.400391 1.5035318,1.5035318 0 0 0 7.4765625,17.964844 C 7.3234365,16.740208 7.2295602,14.7844 7.9355469,12.849609 8.1220977,12.338351 8.3669029,11.838038 8.6738281,11.359375 a 2.2097086,2.2097086 0 0 0 0.734375,0.125 2.2097086,2.2097086 0 0 0 2.2109379,-2.2089844 2.2097086,2.2097086 0 0 0 -0.04883,-0.4570312 c 1.584342,-0.788636 3.779651,-1.2649928 6.800782,-1.1523438 a 1.5035318,1.5035318 0 0 0 1.412109,0.9863282 1.5035318,1.5035318 0 0 0 1.503906,-1.5019532 1.5035318,1.5035318 0 0 0 -1.503906,-1.5039062 1.5035318,1.5035318 0 0 0 -1.423828,1.0214844 c -2.885875,-0.1015845 -5.115006,0.307229 -6.824219,1.0625 l 1.78125,-1.578125 a 1.1322718,1.1322718 0 0 0 0.587891,0.2070312 1.1322718,1.1322718 0 0 0 1.197265,-1.0625 1.1322718,1.1322718 0 0 0 -1.0625,-1.1972656 1.1322718,1.1322718 0 0 0 -0.07812,-0.00195 z m -2.44336,7.5429688 4.673828,8.736328 4.22461,-4.388672 z"
       transform="matrix(0.26458333,0,0,0.26458333,0,290.3854)" />
  </g>
</svg>
